<?xml version="1.0" encoding="utf-8"?>
<!-- Generator: Adobe Illustrator 19.2.1, SVG Export Plug-In . SVG Version: 6.00 Build 0)  -->
<svg version="1.1" id="Слой_1" xmlns="http://www.w3.org/2000/svg" xmlns:xlink="http://www.w3.org/1999/xlink" x="0px" y="0px"
	 viewBox="0 0 120 120" style="enable-background:new 0 0 120 120;" xml:space="preserve">
<style type="text/css">
	.st0{fill:#3d7095;}
	.st1{fill:#3d7095;}
	.st2{fill:#FFFFFF;}
</style>
<g>
	<path class="st0" d="M94,37.7C94,56.5,65.3,76,60,120c-5.3-43.9-34-63.5-34-82.3s15.2-34,34-34S94,18.9,94,37.7z"/>
	<g>
		<path class="st1" d="M60,64.7c-15.2,0-27.5-12.3-27.5-27.5S44.8,9.6,60,9.6s27.5,12.3,27.5,27.5S75.2,64.7,60,64.7z"/>
		<path class="st2" d="M60,10.6c14.6,0,26.5,11.9,26.5,26.5S74.6,63.7,60,63.7S33.5,51.8,33.5,37.2S45.4,10.6,60,10.6 M60,8.6
			c-15.7,0-28.5,12.8-28.5,28.5S44.3,65.7,60,65.7s28.5-12.8,28.5-28.5S75.7,8.6,60,8.6L60,8.6z"/>
	</g>
	<path class="st0" d="M72.7,33.4l-1.9-1.5c-0.4-0.4-0.6-0.6-1.2-0.6h-3.2c-0.6,0-1.1,0.5-1.1,1.1v1.1c0,0.7,0.5,1.1,1.1,1.1h5.3
		c2.7,0,5,2.6,5.3,5.3c0.1,0.7-1,0.7-1.1,0c-0.2-2.2-2-4.2-4.2-4.2h-5.3c-1.2,0-2.1-1-2.1-2.1v-1.1c0-1.1,1-2.1,2.1-2.1h3.2
		c0.9,0,1.3,0.4,1.9,1l2.3,2.2C74.3,33.9,73.2,33.9,72.7,33.4z M48.5,36.7c2,0,3.6,1.6,3.6,3.7c0,2.1-1.6,3.7-3.6,3.7
		s-3.6-1.6-3.6-3.7C44.8,38.3,46.4,36.7,48.5,36.7z M48.5,37.7c-1.5,0-2.7,1.2-2.7,2.7s1.2,2.7,2.7,2.7s2.7-1.2,2.7-2.7
		C51.1,38.9,49.9,37.7,48.5,37.7z M71.7,36.7c2,0,3.6,1.6,3.6,3.7c0,2.1-1.6,3.7-3.6,3.7s-3.6-1.6-3.6-3.7S69.7,36.7,71.7,36.7z
		 M71.7,37.7c-1.5,0-2.7,1.2-2.7,2.7s1.2,2.7,2.7,2.7s2.7-1.2,2.7-2.7C74.4,38.9,73.2,37.7,71.7,37.7z M53.6,40.9h12.7
		c0.7,0,0.7,1.1,0,1.1H53.6C53,41.9,53,40.9,53.6,40.9z M53.6,33.4l3-2.2c0.6-0.6,1.4-1,2.3-1H61c1.1,0,2.1,1,2.1,2.1v1.1
		c0,1.1-0.9,2.1-2.1,2.1H48.3c-2.2,0-4.1,2.1-4.3,4.3c-0.1,0.7-1,0.6-1-0.1c0.3-2.7,2.6-5.3,5.3-5.3H61c0.6,0,1.1-0.4,1.1-1.1v-1.1
		c0-0.6-0.5-1-1.1-1h-2.1c-0.6,0-1.2,0.2-1.6,0.6l-2.6,1.5C54.2,33.9,53.2,33.9,53.6,33.4z"/>
</g>
</svg>
