<?xml version="1.0" encoding="utf-8"?>
<!-- Generator: Adobe Illustrator 19.0.0, SVG Export Plug-In . SVG Version: 6.00 Build 0)  -->
<svg version="1.1" id="Слой_1" xmlns="http://www.w3.org/2000/svg" xmlns:xlink="http://www.w3.org/1999/xlink" x="0px" y="0px"
	 viewBox="-151 137.9 122 122" style="enable-background:new -151 137.9 122 122;" xml:space="preserve">
<style type="text/css">
	.st0{fill:#3d7095;}
</style>
<g>
	<path class="st0" d="M-90,140.4c32.3,0,58.5,26.2,58.5,58.5s-26.2,58.5-58.5,58.5s-58.5-26.2-58.5-58.5S-122.3,140.4-90,140.4
		 M-90,138.9c-33.1,0-60,26.9-60,60s26.9,60,60,60s60-26.9,60-60S-56.9,138.9-90,138.9L-90,138.9z"/>
	<g>
		<g>
			<path class="st0" d="M-119.6,200.6h-4.8l-1.1,2.9h-1.6l4.4-11.4h1.3l4.3,11.4h-1.6L-119.6,200.6z M-123.9,199.4h3.8l-1.9-5.2l0,0
				L-123.9,199.4z"/>
			<path class="st0" d="M-116.1,199.4c0-1.4,0.3-2.5,0.9-3.3c0.6-0.8,1.4-1.3,2.4-1.3c0.5,0,0.9,0.1,1.3,0.3s0.7,0.4,1,0.8v-4.6h1.5
				v12.2h-1.3l-0.2-1c-0.3,0.4-0.6,0.7-1,0.9s-0.9,0.3-1.4,0.3c-1,0-1.8-0.4-2.4-1.1c-0.6-0.7-0.9-1.7-0.9-2.9v-0.3H-116.1z
				 M-114.6,199.6c0,0.9,0.2,1.5,0.5,2.1c0.3,0.5,0.9,0.8,1.6,0.8c0.5,0,0.8-0.1,1.2-0.3s0.6-0.5,0.8-0.9v-3.9
				c-0.2-0.3-0.5-0.6-0.8-0.8s-0.7-0.3-1.1-0.3c-0.7,0-1.3,0.3-1.6,0.9s-0.5,1.4-0.5,2.4l0,0H-114.6z"/>
			<path class="st0" d="M-107,199.4c0-1.4,0.3-2.5,0.9-3.3c0.6-0.8,1.4-1.3,2.4-1.3c0.5,0,0.9,0.1,1.3,0.3s0.7,0.4,1,0.8v-4.6h1.5
				v12.2h-1.3l-0.2-1c-0.3,0.4-0.6,0.7-1,0.9s-0.9,0.3-1.4,0.3c-1,0-1.8-0.4-2.4-1.1c-0.6-0.7-0.9-1.7-0.9-2.9v-0.3H-107z
				 M-105.5,199.6c0,0.9,0.2,1.5,0.5,2.1c0.3,0.5,0.9,0.8,1.6,0.8c0.5,0,0.8-0.1,1.2-0.3s0.6-0.5,0.8-0.9v-3.9
				c-0.2-0.3-0.5-0.6-0.8-0.8s-0.7-0.3-1.1-0.3c-0.7,0-1.3,0.3-1.6,0.9s-0.5,1.4-0.5,2.4l0,0H-105.5z"/>
			<path class="st0" d="M-86.4,199.6c0,1.2-0.3,2.2-0.9,2.9c-0.6,0.7-1.4,1.1-2.4,1.1c-0.5,0-1-0.1-1.4-0.3s-0.7-0.4-1-0.8v4.1h-1.5
				v-11.7h1.2l0.2,1.1c0.3-0.4,0.6-0.7,1-0.9s0.9-0.3,1.4-0.3c1,0,1.9,0.4,2.4,1.2c0.6,0.8,0.9,1.9,0.9,3.3L-86.4,199.6L-86.4,199.6
				z M-87.9,199.4c0-1-0.2-1.7-0.6-2.4c-0.4-0.6-0.9-0.9-1.7-0.9c-0.4,0-0.8,0.1-1.1,0.3s-0.6,0.5-0.8,0.8v4.1
				c0.2,0.3,0.4,0.6,0.8,0.8c0.3,0.2,0.7,0.3,1.1,0.3c0.7,0,1.3-0.3,1.7-0.8S-87.9,200.4-87.9,199.4L-87.9,199.4z"/>
			<path class="st0" d="M-82.9,196.3c0.3-0.4,0.6-0.7,1.1-0.9c0.4-0.2,0.9-0.3,1.4-0.3c0.9,0,1.6,0.3,2.1,0.8s0.8,1.4,0.8,2.5v5.3
				H-79v-5.3c0-0.7-0.2-1.2-0.4-1.5c-0.3-0.3-0.7-0.5-1.3-0.5c-0.4,0-0.8,0.1-1.2,0.3c-0.3,0.2-0.6,0.5-0.9,0.8v6.2h-1.5v-12.2h1.5
				L-82.9,196.3L-82.9,196.3z"/>
			<path class="st0" d="M-75.7,199.3c0-1.3,0.3-2.3,1-3.1s1.6-1.2,2.8-1.2s2.1,0.4,2.8,1.2s1,1.8,1,3.1v0.2c0,1.3-0.3,2.3-1,3.1
				s-1.6,1.2-2.8,1.2s-2.1-0.4-2.8-1.2s-1-1.8-1-3.1V199.3z M-74.2,199.4c0,0.9,0.2,1.6,0.6,2.2c0.4,0.6,0.9,0.9,1.7,0.9
				c0.7,0,1.3-0.3,1.7-0.9c0.4-0.6,0.6-1.3,0.6-2.2v-0.2c0-0.9-0.2-1.6-0.6-2.2s-0.9-0.9-1.7-0.9c-0.7,0-1.3,0.3-1.7,0.9
				c-0.4,0.6-0.6,1.3-0.6,2.2V199.4z"/>
			<path class="st0" d="M-64.3,193.1v2h1.6v1.1h-1.6v5.1c0,0.4,0.1,0.7,0.2,0.8s0.4,0.2,0.7,0.2c0.1,0,0.2,0,0.3,0s0.2,0,0.3-0.1
				l0.2,1.1c-0.1,0.1-0.3,0.2-0.5,0.2c-0.2,0.1-0.4,0.1-0.7,0.1c-0.6,0-1.1-0.2-1.5-0.6c-0.4-0.4-0.6-1-0.6-1.8v-5.1h-1.3V195h1.3
				v-2L-64.3,193.1L-64.3,193.1z"/>
			<path class="st0" d="M-61.1,199.3c0-1.3,0.3-2.3,1-3.1s1.6-1.2,2.8-1.2s2.1,0.4,2.8,1.2s1,1.8,1,3.1v0.2c0,1.3-0.3,2.3-1,3.1
				s-1.6,1.2-2.8,1.2s-2.1-0.4-2.8-1.2s-1-1.8-1-3.1V199.3z M-59.6,199.4c0,0.9,0.2,1.6,0.6,2.2c0.4,0.6,0.9,0.9,1.7,0.9
				c0.7,0,1.3-0.3,1.7-0.9c0.4-0.6,0.6-1.3,0.6-2.2v-0.2c0-0.9-0.2-1.6-0.6-2.2s-0.9-0.9-1.7-0.9c-0.7,0-1.3,0.3-1.7,0.9
				c-0.4,0.6-0.6,1.3-0.6,2.2V199.4z"/>
			<path class="st0" d="M-127.2,205.1v-0.8h74.4v0.8H-127.2z"/>
		</g>
	</g>
</g>
</svg>
